<svg width="40" height="41" viewBox="0 0 40 41" fill="none" xmlns="http://www.w3.org/2000/svg">
<path d="M19.816 29.36C17.488 29.36 15.496 28.916 13.84 28.028C12.184 27.116 10.912 25.868 10.024 24.284C9.16 22.676 8.728 20.852 8.728 18.812C8.728 16.724 9.196 14.9 10.132 13.34C11.068 11.78 12.364 10.568 14.02 9.704C15.676 8.816 17.584 8.372 19.744 8.372C21.736 8.372 23.392 8.792 24.712 9.632C26.056 10.472 27.076 11.564 27.772 12.908H26.692V8.732H29.032V14.996H26.944C26.296 13.532 25.36 12.416 24.136 11.648C22.912 10.88 21.484 10.496 19.852 10.496C18.22 10.496 16.804 10.832 15.604 11.504C14.428 12.152 13.516 13.088 12.868 14.312C12.22 15.512 11.896 16.952 11.896 18.632C11.896 20.384 12.22 21.908 12.868 23.204C13.516 24.476 14.44 25.46 15.64 26.156C16.864 26.852 18.292 27.2 19.924 27.2C20.932 27.176 21.868 27.032 22.732 26.768C23.596 26.504 24.352 26.108 25 25.58C25.672 25.052 26.188 24.368 26.548 23.528C26.932 22.688 27.124 21.692 27.124 20.54L28.744 20.792H22.84V18.776H30.004V19.856C30.004 21.296 29.776 22.604 29.32 23.78C28.888 24.956 28.24 25.964 27.376 26.804C26.512 27.62 25.444 28.256 24.172 28.712C22.9 29.144 21.448 29.36 19.816 29.36Z" fill="white"/>
<rect y="3" width="3" height="35" fill="#24DC20"/>
<rect x="37" y="3" width="3" height="35" fill="#24DC20"/>
<rect x="2" y="34" width="35" height="4" fill="#24DC20"/>
</svg>
